; NON-PLATED HOLES START AT T1
; THROUGH (PLATED) HOLES START AT T100
M48
INCH
T1C0.000000
T100C0.035433
T101C0.015748
T102C0.040000
T103C0.035000
%
T1
X014444Y020010
T100
X029444Y003662
X029444Y006221
T101
X022431Y004206
T102
X010444Y020010
X035944Y001010
X020944Y020010
X017944Y000960
X033444Y016321
X037894Y012060
X036894Y018060
X015444Y020110
X029944Y020010
X033444Y012221
X002444Y002221
X030444Y016221
X029444Y016321
X037994Y007060
X022944Y001010
X036894Y010060
X038014Y020060
X002444Y006221
X037894Y006060
X037994Y015060
X033344Y008221
X037894Y018060
X036994Y011060
X033944Y020010
X027444Y004121
X012444Y020010
X032444Y016221
X026444Y008221
X014444Y016321
X011444Y020110
X021944Y001110
X037994Y011060
X033444Y009221
X023944Y001110
X012444Y016321
X027944Y020010
X036994Y013060
X036994Y007060
X026944Y001010
X009444Y020110
X022944Y020010
X013944Y000960
X031444Y016321
X024944Y020010
X036994Y017060
X015944Y000960
X017944Y020110
X028944Y020110
X037994Y013060
X036874Y003060
X002444Y010221
X027444Y005221
X016444Y020010
X029944Y001010
X014444Y020010
X036894Y004060
X033344Y011221
X031944Y020010
X020944Y001010
X036874Y020060
X037994Y017060
X036994Y005060
X032944Y001110
X031944Y001010
X038014Y003060
X036894Y012060
X019944Y001110
X028944Y001110
X037994Y019060
X034944Y001110
X026944Y020110
X037894Y004060
X024944Y001010
X033344Y004221
X023944Y020110
X037894Y016060
X012944Y001060
X030944Y020110
X033344Y006221
X021944Y020110
X036994Y015060
X018944Y020010
X037994Y005060
X036994Y019060
X016944Y001060
X037894Y008060
X026444Y007121
X036994Y009060
X033344Y013221
X033944Y001010
X033444Y007221
X036894Y008060
X036894Y016060
X036894Y014060
X033444Y005221
X030944Y001110
X034444Y016221
X019944Y020110
X014944Y001060
X025944Y001110
X037894Y014060
X002444Y004221
X037994Y009060
X013444Y016221
X002444Y008221
X036894Y006060
X013444Y020110
X037894Y010060
X032944Y020110
T103
X021444Y011221
X025444Y013221
X021444Y013221
X025444Y011221
T00
M30
