G04 MADE WITH FRITZING*
G04 WWW.FRITZING.ORG*
G04 DOUBLE SIDED*
G04 HOLES PLATED*
G04 CONTOUR ON CENTER OF CONTOUR VECTOR*
%ASAXBY*%
%FSLAX23Y23*%
%MOIN*%
%OFA0B0*%
%SFA1.0B1.0*%
%ADD10C,0.066604*%
%ADD11C,0.066632*%
%ADD12C,0.065993*%
%ADD13C,0.078000*%
%ADD14C,0.074000*%
%ADD15C,0.080000*%
%ADD16C,0.075000*%
%ADD17C,0.141732*%
%ADD18R,0.080000X0.080000*%
%ADD19R,0.080000X0.079986*%
%ADD20C,0.024000*%
%ADD21C,0.048000*%
%ADD22R,0.001000X0.001000*%
%LNCOPPER0*%
G90*
G70*
G54D10*
X2143Y1016D03*
X2143Y916D03*
X2143Y816D03*
X2143Y716D03*
G54D11*
X243Y2376D03*
G54D10*
X2143Y616D03*
X2143Y516D03*
X2143Y416D03*
G54D12*
X1143Y216D03*
G54D10*
X2143Y2016D03*
X2143Y1916D03*
X2143Y2616D03*
X2143Y1816D03*
X2143Y1716D03*
X2143Y1616D03*
X2143Y1516D03*
X2143Y1416D03*
G54D12*
X343Y216D03*
G54D10*
X2143Y1316D03*
G54D12*
X1943Y216D03*
G54D11*
X243Y1816D03*
G54D12*
X743Y216D03*
X1543Y216D03*
G54D11*
X243Y2776D03*
G54D10*
X2143Y2216D03*
G54D11*
X243Y2216D03*
G54D12*
X543Y216D03*
X943Y216D03*
X1343Y216D03*
X1743Y216D03*
G54D11*
X243Y616D03*
X243Y716D03*
X243Y816D03*
X243Y2976D03*
X243Y916D03*
X243Y2576D03*
X243Y1016D03*
X243Y1116D03*
X243Y1216D03*
X243Y1316D03*
G54D10*
X2143Y2816D03*
X2143Y2416D03*
G54D11*
X243Y1616D03*
X243Y2016D03*
G54D12*
X243Y216D03*
X443Y216D03*
X643Y216D03*
X843Y216D03*
X1043Y216D03*
X1243Y216D03*
X1443Y216D03*
X1643Y216D03*
X1843Y216D03*
G54D11*
X243Y3076D03*
X243Y2876D03*
X243Y2676D03*
X243Y2476D03*
G54D10*
X2143Y2916D03*
X2143Y2716D03*
X2143Y2516D03*
X2143Y2316D03*
G54D11*
X243Y1516D03*
X243Y1716D03*
X243Y1916D03*
X243Y2116D03*
G54D12*
X243Y316D03*
X343Y316D03*
X443Y316D03*
X543Y316D03*
X643Y316D03*
X743Y316D03*
X843Y316D03*
X943Y316D03*
X1043Y316D03*
X1143Y316D03*
X1243Y316D03*
X1343Y316D03*
X1443Y316D03*
X1543Y316D03*
X1643Y316D03*
X1743Y316D03*
X1843Y316D03*
X1943Y316D03*
G54D10*
X2143Y1116D03*
X2143Y1016D03*
X2143Y916D03*
X2143Y816D03*
X2143Y716D03*
G54D11*
X243Y2376D03*
G54D10*
X2143Y616D03*
X2143Y516D03*
X2143Y416D03*
G54D12*
X1143Y216D03*
G54D10*
X2143Y2016D03*
X2143Y1916D03*
X2143Y2616D03*
X2143Y1816D03*
X2143Y1716D03*
X2143Y1616D03*
X2143Y1516D03*
X2143Y1416D03*
G54D12*
X343Y216D03*
G54D10*
X2143Y1316D03*
G54D12*
X1943Y216D03*
G54D11*
X243Y1816D03*
G54D12*
X743Y216D03*
X1543Y216D03*
G54D11*
X243Y2776D03*
G54D10*
X2143Y2216D03*
G54D11*
X243Y2216D03*
G54D12*
X543Y216D03*
X943Y216D03*
X1343Y216D03*
X1743Y216D03*
G54D11*
X243Y616D03*
X243Y716D03*
X243Y816D03*
X243Y2976D03*
X243Y916D03*
X243Y2576D03*
X243Y1016D03*
X243Y1116D03*
X243Y1216D03*
X243Y1316D03*
G54D10*
X2143Y2816D03*
X2143Y2416D03*
G54D11*
X243Y1616D03*
X243Y2016D03*
G54D12*
X243Y216D03*
X443Y216D03*
X643Y216D03*
X843Y216D03*
X1043Y216D03*
X1243Y216D03*
X1443Y216D03*
X1643Y216D03*
X1843Y216D03*
G54D11*
X243Y3076D03*
X243Y2876D03*
X243Y2676D03*
X243Y2476D03*
G54D10*
X2143Y2916D03*
X2143Y2716D03*
X2143Y2516D03*
X2143Y2316D03*
G54D11*
X243Y1516D03*
X243Y1716D03*
X243Y1916D03*
X243Y2116D03*
G54D12*
X243Y316D03*
X343Y316D03*
X443Y316D03*
X543Y316D03*
X643Y316D03*
X743Y316D03*
X843Y316D03*
X943Y316D03*
X1043Y316D03*
X1143Y316D03*
X1243Y316D03*
X1343Y316D03*
X1443Y316D03*
X1543Y316D03*
X1643Y316D03*
X1743Y316D03*
X1843Y316D03*
X1943Y316D03*
G54D10*
X2143Y1116D03*
G54D13*
X143Y2416D03*
X143Y2516D03*
X143Y2616D03*
X143Y2716D03*
X143Y2816D03*
X143Y2916D03*
X143Y3016D03*
X143Y3116D03*
X143Y1558D03*
X143Y1658D03*
X143Y1758D03*
X143Y1858D03*
X143Y1958D03*
X143Y2058D03*
X143Y2158D03*
X143Y2258D03*
X2043Y2958D03*
X2043Y2858D03*
X2043Y2758D03*
X2043Y2658D03*
X2043Y2558D03*
X2043Y2458D03*
X2043Y2358D03*
X2043Y2258D03*
X2043Y2058D03*
X2043Y1958D03*
X2043Y1858D03*
X2043Y1758D03*
X2043Y1658D03*
X2043Y1558D03*
X2043Y1458D03*
X2043Y1358D03*
G54D14*
X1743Y616D03*
X1743Y726D03*
X943Y526D03*
X1043Y516D03*
X1143Y526D03*
X1243Y516D03*
X1343Y526D03*
X1443Y516D03*
X733Y616D03*
X743Y716D03*
X733Y816D03*
X743Y916D03*
G54D15*
X843Y3816D03*
X1043Y3816D03*
X643Y3816D03*
X243Y3816D03*
X443Y3816D03*
X1643Y3816D03*
X1843Y3816D03*
X1243Y3816D03*
X1443Y3816D03*
G54D16*
X1543Y1016D03*
X1143Y1016D03*
X1143Y1216D03*
X1543Y1216D03*
G54D17*
X1943Y3416D03*
X1943Y3416D03*
X1743Y3416D03*
X1743Y3416D03*
G54D18*
X643Y3816D03*
G54D19*
X243Y3816D03*
X1643Y3816D03*
X1243Y3816D03*
G54D20*
X702Y616D02*
X273Y616D01*
D02*
X712Y716D02*
X273Y716D01*
D02*
X1774Y725D02*
X2113Y717D01*
D02*
X1543Y1187D02*
X1543Y1045D01*
D02*
X543Y916D02*
X273Y916D01*
D02*
X643Y1116D02*
X543Y916D01*
D02*
X1115Y1210D02*
X643Y1116D01*
D02*
X1843Y2616D02*
X2014Y2566D01*
D02*
X1443Y3616D02*
X1843Y2616D01*
G54D21*
D02*
X1928Y3476D02*
X1854Y3775D01*
G54D20*
D02*
X543Y816D02*
X643Y1016D01*
D02*
X1343Y1116D02*
X1248Y547D01*
D02*
X643Y1016D02*
X1243Y1116D01*
D02*
X273Y816D02*
X543Y816D01*
D02*
X1243Y1116D02*
X1343Y1116D01*
D02*
X1532Y990D02*
X1355Y555D01*
D02*
X243Y416D02*
X1041Y424D01*
D02*
X1041Y424D02*
X1042Y485D01*
D02*
X243Y346D02*
X243Y416D01*
D02*
X1443Y485D02*
X1443Y346D01*
D02*
X774Y916D02*
X943Y916D01*
D02*
X943Y916D02*
X1036Y546D01*
D02*
X1843Y2616D02*
X1443Y3616D01*
D02*
X1443Y3616D02*
X1443Y3785D01*
D02*
X2014Y2566D02*
X1843Y2616D01*
D02*
X443Y3785D02*
X443Y1516D01*
D02*
X443Y1516D02*
X273Y1516D01*
D02*
X343Y3616D02*
X343Y1616D01*
D02*
X343Y1616D02*
X273Y1616D01*
D02*
X257Y3788D02*
X343Y3616D01*
D02*
X1443Y3616D02*
X1443Y3785D01*
D02*
X843Y3785D02*
X843Y3616D01*
D02*
X843Y3616D02*
X1443Y3616D01*
G54D22*
X696Y654D02*
X769Y654D01*
X1706Y654D02*
X1779Y654D01*
X696Y653D02*
X769Y653D01*
X1706Y653D02*
X1779Y653D01*
X696Y652D02*
X769Y652D01*
X1706Y652D02*
X1779Y652D01*
X696Y651D02*
X769Y651D01*
X1706Y651D02*
X1779Y651D01*
X696Y650D02*
X769Y650D01*
X1706Y650D02*
X1779Y650D01*
X696Y649D02*
X769Y649D01*
X1706Y649D02*
X1779Y649D01*
X696Y648D02*
X769Y648D01*
X1706Y648D02*
X1779Y648D01*
X696Y647D02*
X769Y647D01*
X1706Y647D02*
X1779Y647D01*
X696Y646D02*
X769Y646D01*
X1706Y646D02*
X1779Y646D01*
X696Y645D02*
X769Y645D01*
X1706Y645D02*
X1779Y645D01*
X696Y644D02*
X769Y644D01*
X1706Y644D02*
X1779Y644D01*
X696Y643D02*
X769Y643D01*
X1706Y643D02*
X1779Y643D01*
X696Y642D02*
X769Y642D01*
X1706Y642D02*
X1779Y642D01*
X696Y641D02*
X769Y641D01*
X1706Y641D02*
X1779Y641D01*
X696Y640D02*
X769Y640D01*
X1706Y640D02*
X1779Y640D01*
X696Y639D02*
X769Y639D01*
X1706Y639D02*
X1779Y639D01*
X696Y638D02*
X769Y638D01*
X1706Y638D02*
X1779Y638D01*
X696Y637D02*
X728Y637D01*
X737Y637D02*
X769Y637D01*
X1706Y637D02*
X1738Y637D01*
X1747Y637D02*
X1779Y637D01*
X696Y636D02*
X725Y636D01*
X740Y636D02*
X769Y636D01*
X1706Y636D02*
X1734Y636D01*
X1750Y636D02*
X1779Y636D01*
X696Y635D02*
X723Y635D01*
X742Y635D02*
X769Y635D01*
X1706Y635D02*
X1732Y635D01*
X1752Y635D02*
X1779Y635D01*
X696Y634D02*
X721Y634D01*
X744Y634D02*
X769Y634D01*
X1706Y634D02*
X1731Y634D01*
X1754Y634D02*
X1779Y634D01*
X696Y633D02*
X720Y633D01*
X745Y633D02*
X769Y633D01*
X1706Y633D02*
X1729Y633D01*
X1755Y633D02*
X1779Y633D01*
X696Y632D02*
X718Y632D01*
X747Y632D02*
X769Y632D01*
X1706Y632D02*
X1728Y632D01*
X1756Y632D02*
X1779Y632D01*
X696Y631D02*
X717Y631D01*
X748Y631D02*
X769Y631D01*
X1706Y631D02*
X1727Y631D01*
X1757Y631D02*
X1779Y631D01*
X696Y630D02*
X717Y630D01*
X748Y630D02*
X769Y630D01*
X1706Y630D02*
X1726Y630D01*
X1758Y630D02*
X1779Y630D01*
X696Y629D02*
X716Y629D01*
X749Y629D02*
X769Y629D01*
X1706Y629D02*
X1725Y629D01*
X1759Y629D02*
X1779Y629D01*
X696Y628D02*
X715Y628D01*
X750Y628D02*
X769Y628D01*
X1706Y628D02*
X1725Y628D01*
X1760Y628D02*
X1779Y628D01*
X696Y627D02*
X715Y627D01*
X750Y627D02*
X769Y627D01*
X1706Y627D02*
X1724Y627D01*
X1760Y627D02*
X1779Y627D01*
X696Y626D02*
X714Y626D01*
X751Y626D02*
X769Y626D01*
X1706Y626D02*
X1724Y626D01*
X1761Y626D02*
X1779Y626D01*
X696Y625D02*
X714Y625D01*
X751Y625D02*
X769Y625D01*
X1706Y625D02*
X1723Y625D01*
X1761Y625D02*
X1779Y625D01*
X696Y624D02*
X713Y624D01*
X752Y624D02*
X769Y624D01*
X1706Y624D02*
X1723Y624D01*
X1761Y624D02*
X1779Y624D01*
X696Y623D02*
X713Y623D01*
X752Y623D02*
X769Y623D01*
X1706Y623D02*
X1723Y623D01*
X1762Y623D02*
X1779Y623D01*
X696Y622D02*
X713Y622D01*
X752Y622D02*
X769Y622D01*
X1706Y622D02*
X1722Y622D01*
X1762Y622D02*
X1779Y622D01*
X696Y621D02*
X712Y621D01*
X753Y621D02*
X769Y621D01*
X1706Y621D02*
X1722Y621D01*
X1762Y621D02*
X1779Y621D01*
X696Y620D02*
X712Y620D01*
X753Y620D02*
X769Y620D01*
X1706Y620D02*
X1722Y620D01*
X1762Y620D02*
X1779Y620D01*
X696Y619D02*
X712Y619D01*
X753Y619D02*
X769Y619D01*
X1706Y619D02*
X1722Y619D01*
X1762Y619D02*
X1779Y619D01*
X696Y618D02*
X712Y618D01*
X753Y618D02*
X769Y618D01*
X1706Y618D02*
X1722Y618D01*
X1763Y618D02*
X1779Y618D01*
X696Y617D02*
X712Y617D01*
X753Y617D02*
X769Y617D01*
X1706Y617D02*
X1722Y617D01*
X1763Y617D02*
X1779Y617D01*
X696Y616D02*
X712Y616D01*
X753Y616D02*
X769Y616D01*
X1706Y616D02*
X1722Y616D01*
X1762Y616D02*
X1779Y616D01*
X696Y615D02*
X712Y615D01*
X753Y615D02*
X769Y615D01*
X1706Y615D02*
X1722Y615D01*
X1762Y615D02*
X1779Y615D01*
X696Y614D02*
X712Y614D01*
X753Y614D02*
X769Y614D01*
X1706Y614D02*
X1722Y614D01*
X1762Y614D02*
X1779Y614D01*
X696Y613D02*
X713Y613D01*
X752Y613D02*
X769Y613D01*
X1706Y613D02*
X1722Y613D01*
X1762Y613D02*
X1779Y613D01*
X696Y612D02*
X713Y612D01*
X752Y612D02*
X769Y612D01*
X1706Y612D02*
X1722Y612D01*
X1762Y612D02*
X1779Y612D01*
X696Y611D02*
X713Y611D01*
X752Y611D02*
X769Y611D01*
X1706Y611D02*
X1723Y611D01*
X1761Y611D02*
X1779Y611D01*
X696Y610D02*
X713Y610D01*
X752Y610D02*
X769Y610D01*
X1706Y610D02*
X1723Y610D01*
X1761Y610D02*
X1779Y610D01*
X696Y609D02*
X714Y609D01*
X751Y609D02*
X769Y609D01*
X1706Y609D02*
X1724Y609D01*
X1761Y609D02*
X1779Y609D01*
X696Y608D02*
X714Y608D01*
X751Y608D02*
X769Y608D01*
X1706Y608D02*
X1724Y608D01*
X1760Y608D02*
X1779Y608D01*
X696Y607D02*
X715Y607D01*
X750Y607D02*
X769Y607D01*
X1706Y607D02*
X1725Y607D01*
X1760Y607D02*
X1779Y607D01*
X696Y606D02*
X716Y606D01*
X749Y606D02*
X769Y606D01*
X1706Y606D02*
X1725Y606D01*
X1759Y606D02*
X1779Y606D01*
X696Y605D02*
X716Y605D01*
X749Y605D02*
X769Y605D01*
X1706Y605D02*
X1726Y605D01*
X1758Y605D02*
X1779Y605D01*
X696Y604D02*
X717Y604D01*
X748Y604D02*
X769Y604D01*
X1706Y604D02*
X1727Y604D01*
X1757Y604D02*
X1779Y604D01*
X696Y603D02*
X718Y603D01*
X747Y603D02*
X769Y603D01*
X1706Y603D02*
X1728Y603D01*
X1756Y603D02*
X1779Y603D01*
X696Y602D02*
X719Y602D01*
X746Y602D02*
X769Y602D01*
X1706Y602D02*
X1729Y602D01*
X1755Y602D02*
X1779Y602D01*
X696Y601D02*
X721Y601D01*
X744Y601D02*
X769Y601D01*
X1706Y601D02*
X1730Y601D01*
X1754Y601D02*
X1779Y601D01*
X696Y600D02*
X722Y600D01*
X743Y600D02*
X769Y600D01*
X1706Y600D02*
X1732Y600D01*
X1752Y600D02*
X1779Y600D01*
X696Y599D02*
X724Y599D01*
X741Y599D02*
X769Y599D01*
X1706Y599D02*
X1734Y599D01*
X1750Y599D02*
X1779Y599D01*
X696Y598D02*
X727Y598D01*
X738Y598D02*
X769Y598D01*
X1706Y598D02*
X1737Y598D01*
X1747Y598D02*
X1779Y598D01*
X696Y597D02*
X769Y597D01*
X1706Y597D02*
X1779Y597D01*
X696Y596D02*
X769Y596D01*
X1706Y596D02*
X1779Y596D01*
X696Y595D02*
X769Y595D01*
X1706Y595D02*
X1779Y595D01*
X696Y594D02*
X769Y594D01*
X1706Y594D02*
X1779Y594D01*
X696Y593D02*
X769Y593D01*
X1706Y593D02*
X1779Y593D01*
X696Y592D02*
X769Y592D01*
X1706Y592D02*
X1779Y592D01*
X696Y591D02*
X769Y591D01*
X1706Y591D02*
X1779Y591D01*
X696Y590D02*
X769Y590D01*
X1706Y590D02*
X1779Y590D01*
X696Y589D02*
X769Y589D01*
X1706Y589D02*
X1779Y589D01*
X696Y588D02*
X769Y588D01*
X1706Y588D02*
X1779Y588D01*
X696Y587D02*
X769Y587D01*
X1706Y587D02*
X1779Y587D01*
X696Y586D02*
X769Y586D01*
X1706Y586D02*
X1779Y586D01*
X696Y585D02*
X769Y585D01*
X1706Y585D02*
X1779Y585D01*
X696Y584D02*
X769Y584D01*
X1706Y584D02*
X1779Y584D01*
X696Y583D02*
X769Y583D01*
X1706Y583D02*
X1779Y583D01*
X696Y582D02*
X769Y582D01*
X1706Y582D02*
X1779Y582D01*
X696Y581D02*
X769Y581D01*
X1706Y581D02*
X1779Y581D01*
X906Y564D02*
X979Y564D01*
X906Y563D02*
X979Y563D01*
X906Y562D02*
X979Y562D01*
X906Y561D02*
X979Y561D01*
X906Y560D02*
X979Y560D01*
X906Y559D02*
X979Y559D01*
X906Y558D02*
X979Y558D01*
X906Y557D02*
X979Y557D01*
X906Y556D02*
X979Y556D01*
X906Y555D02*
X979Y555D01*
X906Y554D02*
X979Y554D01*
X906Y553D02*
X979Y553D01*
X906Y552D02*
X979Y552D01*
X906Y551D02*
X979Y551D01*
X906Y550D02*
X979Y550D01*
X906Y549D02*
X979Y549D01*
X906Y548D02*
X979Y548D01*
X906Y547D02*
X938Y547D01*
X947Y547D02*
X979Y547D01*
X906Y546D02*
X935Y546D01*
X950Y546D02*
X979Y546D01*
X906Y545D02*
X933Y545D01*
X952Y545D02*
X979Y545D01*
X906Y544D02*
X931Y544D01*
X954Y544D02*
X979Y544D01*
X906Y543D02*
X930Y543D01*
X955Y543D02*
X979Y543D01*
X906Y542D02*
X928Y542D01*
X957Y542D02*
X979Y542D01*
X906Y541D02*
X927Y541D01*
X958Y541D02*
X979Y541D01*
X906Y540D02*
X927Y540D01*
X958Y540D02*
X979Y540D01*
X906Y539D02*
X926Y539D01*
X959Y539D02*
X979Y539D01*
X906Y538D02*
X925Y538D01*
X960Y538D02*
X979Y538D01*
X906Y537D02*
X924Y537D01*
X960Y537D02*
X979Y537D01*
X906Y536D02*
X924Y536D01*
X961Y536D02*
X979Y536D01*
X906Y535D02*
X923Y535D01*
X961Y535D02*
X979Y535D01*
X906Y534D02*
X923Y534D01*
X962Y534D02*
X979Y534D01*
X906Y533D02*
X923Y533D01*
X962Y533D02*
X979Y533D01*
X906Y532D02*
X923Y532D01*
X962Y532D02*
X979Y532D01*
X906Y531D02*
X922Y531D01*
X963Y531D02*
X979Y531D01*
X906Y530D02*
X922Y530D01*
X963Y530D02*
X979Y530D01*
X906Y529D02*
X922Y529D01*
X963Y529D02*
X979Y529D01*
X906Y528D02*
X922Y528D01*
X963Y528D02*
X979Y528D01*
X906Y527D02*
X922Y527D01*
X963Y527D02*
X979Y527D01*
X906Y526D02*
X922Y526D01*
X963Y526D02*
X979Y526D01*
X906Y525D02*
X922Y525D01*
X963Y525D02*
X979Y525D01*
X906Y524D02*
X922Y524D01*
X963Y524D02*
X979Y524D01*
X906Y523D02*
X922Y523D01*
X962Y523D02*
X979Y523D01*
X906Y522D02*
X923Y522D01*
X962Y522D02*
X979Y522D01*
X906Y521D02*
X923Y521D01*
X962Y521D02*
X979Y521D01*
X906Y520D02*
X923Y520D01*
X961Y520D02*
X979Y520D01*
X906Y519D02*
X924Y519D01*
X961Y519D02*
X979Y519D01*
X906Y518D02*
X924Y518D01*
X960Y518D02*
X979Y518D01*
X906Y517D02*
X925Y517D01*
X960Y517D02*
X979Y517D01*
X906Y516D02*
X926Y516D01*
X959Y516D02*
X979Y516D01*
X906Y515D02*
X926Y515D01*
X958Y515D02*
X979Y515D01*
X906Y514D02*
X927Y514D01*
X958Y514D02*
X979Y514D01*
X906Y513D02*
X928Y513D01*
X957Y513D02*
X979Y513D01*
X906Y512D02*
X929Y512D01*
X955Y512D02*
X979Y512D01*
X906Y511D02*
X931Y511D01*
X954Y511D02*
X979Y511D01*
X906Y510D02*
X932Y510D01*
X953Y510D02*
X979Y510D01*
X906Y509D02*
X934Y509D01*
X951Y509D02*
X979Y509D01*
X906Y508D02*
X937Y508D01*
X947Y508D02*
X979Y508D01*
X906Y507D02*
X979Y507D01*
X906Y506D02*
X979Y506D01*
X906Y505D02*
X979Y505D01*
X906Y504D02*
X979Y504D01*
X906Y503D02*
X979Y503D01*
X906Y502D02*
X979Y502D01*
X906Y501D02*
X979Y501D01*
X906Y500D02*
X979Y500D01*
X906Y499D02*
X979Y499D01*
X906Y498D02*
X979Y498D01*
X906Y497D02*
X979Y497D01*
X906Y496D02*
X979Y496D01*
X906Y495D02*
X979Y495D01*
X906Y494D02*
X979Y494D01*
X906Y493D02*
X979Y493D01*
X906Y492D02*
X979Y492D01*
X906Y491D02*
X979Y491D01*
D02*
G04 End of Copper0*
M02*