; NON-PLATED HOLES START AT T1
; THROUGH (PLATED) HOLES START AT T100
M48
INCH
T100C0.040000
T101C0.038035
T102C0.038000
T103C0.078740
T104C0.035000
T105C0.038007
T106C0.037396
%
T100
X009432Y005260
X016432Y038160
X010432Y038160
X017432Y006160
X007332Y008160
X014432Y038160
X014432Y005160
X002432Y038160
X006432Y038160
X013432Y005260
X010432Y005160
X008432Y038160
X007332Y006160
X007432Y007160
X017432Y007260
X004432Y038160
X007432Y009160
X012432Y005160
X011432Y005260
X018432Y038160
X012432Y038160
T101
X002432Y011161
X002432Y006160
X002432Y020160
X002432Y009161
X002432Y021161
X002432Y023761
X002432Y030760
X002432Y007160
X002432Y027760
X002432Y012160
X002432Y017160
X002432Y016161
X002432Y022160
X002432Y010160
X002432Y025760
X002432Y029760
X002432Y008160
X002432Y028761
X002432Y015160
X002432Y024760
X002432Y013160
X002432Y018160
X002432Y026760
X002432Y019161
T102
X020432Y020577
X001432Y016577
X001432Y026160
X020432Y017577
X001432Y019577
X001432Y024160
X001432Y018577
X001432Y020577
X020432Y013577
X001432Y027160
X020432Y024577
X001432Y022577
X001432Y028160
X020432Y014577
X020432Y018577
X020432Y015577
X020432Y029577
X020432Y016577
X020432Y028577
X020432Y019577
X020432Y025577
X001432Y021577
X001432Y025160
X001432Y017577
X001432Y015577
X020432Y026577
X020432Y027577
X001432Y029160
X001432Y030160
X020432Y023577
X001432Y031160
X020432Y022577
T103
X019432Y034160
X017432Y034160
T104
X011432Y012160
X015432Y012160
X011432Y010160
X015432Y010160
T105
X021432Y005160
X021432Y024160
X021432Y017160
X021432Y016161
X021432Y029160
X021432Y014161
X021432Y008160
X021432Y018160
X021432Y020160
X021432Y013160
X021432Y026161
X021432Y019161
X021432Y027160
X021432Y009161
X021432Y028160
X021432Y023160
X021432Y006160
X021432Y004161
X021432Y015160
X021432Y011161
X021432Y007160
X021432Y025160
X021432Y010160
X021432Y022160
T106
X018432Y002160
X007432Y002160
X003432Y003160
X010432Y002160
X007432Y003160
X016432Y002160
X006432Y002160
X002432Y002160
X014432Y003160
X004432Y003160
X014432Y002160
X013432Y002160
X012432Y003160
X011432Y003160
X006432Y003160
X015432Y002160
X018432Y003160
X011432Y002160
X005432Y002160
X017432Y003160
X019432Y002160
X002432Y003160
X013432Y003160
X010432Y003160
X009432Y003160
X003432Y002160
X009432Y002160
X008432Y003160
X012432Y002160
X005432Y003160
X008432Y002160
X017432Y002160
X004432Y002160
X016432Y003160
X015432Y003160
X019432Y003160
T00
M30
