G04 MADE WITH FRITZING*
G04 WWW.FRITZING.ORG*
G04 DOUBLE SIDED*
G04 HOLES PLATED*
G04 CONTOUR ON CENTER OF CONTOUR VECTOR*
%ASAXBY*%
%FSLAX23Y23*%
%MOIN*%
%OFA0B0*%
%SFA1.0B1.0*%
%ADD10C,0.084000*%
%ADD11C,0.010000*%
%ADD12C,0.080000*%
%ADD13C,0.090000*%
%ADD14C,0.085000*%
%ADD15C,0.049370*%
%ADD16R,0.084000X0.084000*%
%ADD17R,0.010148X0.010148*%
%ADD18R,0.089986X0.090000*%
%ADD19R,0.090000X0.090000*%
%ADD20R,0.001000X0.001000*%
%LNMASK1*%
G90*
G70*
G54D10*
X2944Y1632D03*
X3044Y1622D03*
X3144Y1632D03*
X3244Y1622D03*
X3344Y1632D03*
X3444Y1622D03*
X3334Y422D03*
X3344Y522D03*
X3334Y622D03*
X3344Y722D03*
X3334Y822D03*
X3344Y922D03*
G54D11*
X1444Y2001D03*
X1444Y2001D03*
X1444Y2001D03*
X1444Y2001D03*
X1444Y2001D03*
X1444Y2001D03*
X1444Y2001D03*
X1444Y2001D03*
X1444Y2001D03*
X1444Y2001D03*
X1444Y2001D03*
X1444Y2001D03*
X1444Y2001D03*
X1444Y2001D03*
X1444Y2001D03*
X1444Y2001D03*
X1444Y2001D03*
X1444Y2001D03*
X1444Y2001D03*
X1444Y2001D03*
X1444Y2001D03*
X1444Y2001D03*
X1444Y2001D03*
X1444Y2001D03*
X1444Y2001D03*
X1444Y2001D03*
X1444Y2001D03*
X1444Y2001D03*
X1444Y2001D03*
X1444Y2001D03*
X1444Y2001D03*
X1444Y2001D03*
X1444Y2001D03*
X1444Y2001D03*
X1444Y2001D03*
X1444Y2001D03*
X1444Y2001D03*
X1444Y2001D03*
X1444Y2001D03*
X1444Y2001D03*
X1444Y2001D03*
X1444Y2001D03*
X1444Y2001D03*
X1444Y2001D03*
X1444Y2001D03*
X1444Y2001D03*
X1444Y2001D03*
X1444Y2001D03*
X1444Y2001D03*
X1444Y2001D03*
X1444Y2001D03*
X1444Y2001D03*
X1444Y2001D03*
X1444Y2001D03*
X1444Y2001D03*
X1444Y2001D03*
X1444Y2001D03*
X1444Y2001D03*
X1444Y2001D03*
X1444Y2001D03*
X1444Y2001D03*
X1444Y2001D03*
X1444Y2001D03*
X1444Y2001D03*
X1444Y2001D03*
X1444Y2001D03*
X1444Y2001D03*
X1444Y2001D03*
X1444Y2001D03*
X1444Y2001D03*
X1444Y2001D03*
X1444Y2001D03*
X1444Y2001D03*
X1444Y2001D03*
X1444Y2001D03*
X1444Y2001D03*
X1444Y2001D03*
X1444Y2001D03*
X1444Y2001D03*
X1444Y2001D03*
X1444Y2001D03*
X1444Y2001D03*
X1444Y2001D03*
X1444Y2001D03*
X1444Y2001D03*
X1444Y2001D03*
X1444Y2001D03*
X1444Y2001D03*
X1444Y2001D03*
X1444Y2001D03*
X1444Y2001D03*
X1444Y2001D03*
X1444Y2001D03*
X1444Y2001D03*
X1444Y2001D03*
X1444Y2001D03*
X1444Y2001D03*
X1444Y2001D03*
X1444Y2001D03*
X1444Y2001D03*
X1444Y2001D03*
X1444Y2001D03*
X1444Y2001D03*
X1444Y2001D03*
X1444Y2001D03*
X1444Y2001D03*
X1444Y2001D03*
X1444Y2001D03*
X1444Y2001D03*
X1444Y2001D03*
X1444Y2001D03*
X1444Y2001D03*
X1444Y2001D03*
X1444Y2001D03*
X1444Y2001D03*
X1444Y2001D03*
X1444Y2001D03*
X1444Y2001D03*
X1444Y2001D03*
X1444Y2001D03*
X1444Y2001D03*
X1444Y2001D03*
X1444Y2001D03*
X1444Y2001D03*
X1444Y2001D03*
X1444Y2001D03*
X1444Y2001D03*
X1444Y2001D03*
X1444Y2001D03*
X1444Y2001D03*
X1444Y2001D03*
X1444Y2001D03*
X1444Y2001D03*
X1444Y2001D03*
X1444Y2001D03*
X1444Y2001D03*
X1444Y2001D03*
X1444Y2001D03*
X1444Y2001D03*
X1444Y2001D03*
X1444Y2001D03*
X1444Y2001D03*
X1444Y2001D03*
X1444Y2001D03*
X1444Y2001D03*
X1444Y2001D03*
X1444Y2001D03*
X1444Y2001D03*
X1444Y2001D03*
X1444Y2001D03*
X1444Y2001D03*
X1444Y2001D03*
X1444Y2001D03*
X1444Y2001D03*
X1444Y2001D03*
X1444Y2001D03*
X1444Y2001D03*
X1444Y2001D03*
X1444Y2001D03*
X1444Y2001D03*
X1444Y2001D03*
X1444Y2001D03*
X1444Y2001D03*
X1444Y2001D03*
X1444Y2001D03*
X1444Y2001D03*
X1444Y2001D03*
X1444Y2001D03*
X1444Y2001D03*
X1444Y2001D03*
X1444Y2001D03*
X1444Y2001D03*
X1444Y2001D03*
X1444Y2001D03*
X1444Y2001D03*
X1444Y2001D03*
X1444Y2001D03*
X1444Y2001D03*
X1444Y2001D03*
X1444Y2001D03*
X1444Y2001D03*
X1444Y2001D03*
X1444Y2001D03*
X1444Y2001D03*
X1444Y2001D03*
X1444Y2001D03*
X1444Y2001D03*
X1444Y2001D03*
X1444Y2001D03*
X1444Y2001D03*
X1444Y2001D03*
X1444Y2001D03*
X1444Y2001D03*
X1444Y2001D03*
X1444Y2001D03*
X1444Y2001D03*
X1444Y2001D03*
X1444Y2001D03*
X1444Y2001D03*
X1444Y2001D03*
X1444Y2001D03*
X1444Y2001D03*
X1444Y2001D03*
X1444Y2001D03*
X1444Y2001D03*
X1444Y2001D03*
X1444Y2001D03*
X1444Y2001D03*
X1444Y2001D03*
X1444Y2001D03*
X1444Y2001D03*
X1444Y2001D03*
X1444Y2001D03*
X1444Y2001D03*
X1444Y2001D03*
X1444Y2001D03*
X1444Y2001D03*
X1444Y2001D03*
X1444Y2001D03*
X1444Y2001D03*
X1444Y2001D03*
X1444Y2001D03*
X1444Y2001D03*
X1444Y2001D03*
X1444Y2001D03*
X1444Y2001D03*
X1444Y2001D03*
X1444Y2001D03*
X1444Y2001D03*
X1444Y2001D03*
X1444Y2001D03*
X1444Y2001D03*
X1444Y2001D03*
X1444Y2001D03*
X1444Y2001D03*
X1444Y2001D03*
X1444Y2001D03*
X1444Y2001D03*
X1444Y2001D03*
X1444Y2001D03*
X1444Y2001D03*
X1444Y2001D03*
X1444Y2001D03*
X1444Y2001D03*
X1444Y2001D03*
X1444Y2001D03*
X1444Y2001D03*
X1444Y2001D03*
X1444Y2001D03*
X1444Y2001D03*
X1444Y2001D03*
X1444Y2001D03*
X1444Y2001D03*
X1444Y2001D03*
X1444Y2001D03*
X1444Y2001D03*
X1444Y2001D03*
X1444Y2001D03*
X1444Y2001D03*
X1444Y2001D03*
X1444Y2001D03*
X1444Y2001D03*
X1444Y2001D03*
X1444Y2001D03*
X1444Y2001D03*
X1444Y2001D03*
X1444Y2001D03*
X1444Y2001D03*
X1444Y2001D03*
X1444Y2001D03*
X1444Y2001D03*
X1444Y2001D03*
X1444Y2001D03*
X1444Y2001D03*
X1444Y2001D03*
X1444Y2001D03*
X1444Y2001D03*
X1444Y2001D03*
X1444Y2001D03*
X1444Y2001D03*
X1444Y2001D03*
X1444Y2001D03*
X1444Y2001D03*
X1444Y2001D03*
X1444Y2001D03*
X1444Y2001D03*
X1444Y2001D03*
X1444Y2001D03*
X1444Y2001D03*
X1444Y2001D03*
X1444Y2001D03*
X1444Y2001D03*
X1444Y2001D03*
X1444Y2001D03*
X1444Y2001D03*
X1444Y2001D03*
X1444Y2001D03*
X1444Y2001D03*
X1444Y2001D03*
X1444Y2001D03*
X1444Y2001D03*
X1444Y2001D03*
X1444Y2001D03*
X1444Y2001D03*
X1444Y2001D03*
X1444Y2001D03*
X1444Y2001D03*
X1444Y2001D03*
X1444Y2001D03*
X1444Y2001D03*
X1444Y2001D03*
X1444Y2001D03*
X1444Y2001D03*
X1444Y2001D03*
X1444Y2001D03*
X1444Y2001D03*
X1444Y2001D03*
X1444Y2001D03*
X1444Y2001D03*
X1444Y2001D03*
X1444Y2001D03*
X1444Y2001D03*
X1444Y2001D03*
X1444Y2001D03*
X1444Y2001D03*
X1444Y2001D03*
X1444Y2001D03*
X1444Y2001D03*
X1444Y2001D03*
X1444Y2001D03*
X1444Y2001D03*
X1444Y2001D03*
X1444Y2001D03*
X1444Y2001D03*
X1444Y2001D03*
X1444Y2001D03*
X1444Y2001D03*
X1444Y2001D03*
X1444Y2001D03*
X1444Y2001D03*
X1444Y2001D03*
X1444Y2001D03*
X1444Y2001D03*
X1444Y2001D03*
X1444Y2001D03*
X1444Y2001D03*
X1444Y2001D03*
X1444Y2001D03*
X1444Y2001D03*
X1444Y2001D03*
X1444Y2001D03*
X1444Y2001D03*
X1444Y2001D03*
X1444Y2001D03*
X1444Y2001D03*
X1444Y2001D03*
X1444Y2001D03*
X1444Y2001D03*
X1444Y2001D03*
X1444Y2001D03*
X1444Y2001D03*
X1444Y2001D03*
X1444Y2001D03*
X1444Y2001D03*
X1444Y2001D03*
X1444Y2001D03*
X1444Y2001D03*
X1444Y2001D03*
X1444Y2001D03*
X1444Y2001D03*
X1444Y2001D03*
X1444Y2001D03*
X1444Y2001D03*
X1444Y2001D03*
X1444Y2001D03*
X1444Y2001D03*
X1444Y2001D03*
X1444Y2001D03*
X1444Y2001D03*
X1444Y2001D03*
X1444Y2001D03*
X1444Y2001D03*
X1444Y2001D03*
X1444Y2001D03*
X1444Y2001D03*
X1444Y2001D03*
X1444Y2001D03*
X1444Y2001D03*
X1444Y2001D03*
X1444Y2001D03*
X1444Y2001D03*
X1444Y2001D03*
X1444Y2001D03*
X1444Y2001D03*
X1444Y2001D03*
X1444Y2001D03*
X1444Y2001D03*
X1444Y2001D03*
X1444Y2001D03*
X1444Y2001D03*
X1444Y2001D03*
X1444Y2001D03*
X1444Y2001D03*
X1444Y2001D03*
X1444Y2001D03*
X1444Y2001D03*
X1444Y2001D03*
X1444Y2001D03*
X1444Y2001D03*
X1444Y2001D03*
X1444Y2001D03*
X1444Y2001D03*
X1444Y2001D03*
X1444Y2001D03*
X1444Y2001D03*
X1444Y2001D03*
X1444Y2001D03*
X1444Y2001D03*
X1444Y2001D03*
X1444Y2001D03*
X1444Y2001D03*
X1444Y2001D03*
X1444Y2001D03*
X1444Y2001D03*
X1444Y2001D03*
X1444Y2001D03*
X1444Y2001D03*
X1444Y2001D03*
X1444Y2001D03*
X1444Y2001D03*
X1444Y2001D03*
X1444Y2001D03*
X1444Y2001D03*
X1444Y2001D03*
X1444Y2001D03*
X1444Y2001D03*
X1444Y2001D03*
X1444Y2001D03*
X1444Y2001D03*
X1444Y2001D03*
X1444Y2001D03*
X1444Y2001D03*
X1444Y2001D03*
X1444Y2001D03*
X1444Y2001D03*
X1444Y2001D03*
X1444Y2001D03*
X1444Y2001D03*
X1444Y2001D03*
X1444Y2001D03*
X1444Y2001D03*
X1444Y2001D03*
X1444Y2001D03*
X1444Y2001D03*
X1444Y2001D03*
X1444Y2001D03*
X1444Y2001D03*
X1444Y2001D03*
G54D10*
X1644Y2001D03*
X3801Y2006D03*
X3801Y306D03*
X1794Y96D03*
X3687Y2006D03*
X1594Y96D03*
X3687Y306D03*
X1394Y96D03*
X1694Y106D03*
X3699Y1906D03*
X1494Y106D03*
X3699Y1706D03*
X1294Y106D03*
X3699Y1506D03*
X3689Y1806D03*
X3699Y1306D03*
X3689Y1606D03*
X3699Y1106D03*
X3689Y1406D03*
X3699Y906D03*
X3689Y1206D03*
X3699Y706D03*
X3689Y1006D03*
X3699Y506D03*
X3689Y806D03*
X3799Y1906D03*
X3689Y606D03*
X3799Y1706D03*
X3689Y406D03*
X3799Y1506D03*
X3789Y1806D03*
X3799Y1306D03*
X3789Y1606D03*
X3799Y1106D03*
X3789Y1406D03*
X3799Y906D03*
X3789Y1206D03*
X3799Y706D03*
X3789Y1006D03*
X3799Y506D03*
X3789Y806D03*
X2694Y101D03*
X3789Y606D03*
X2494Y101D03*
X3789Y406D03*
X2294Y101D03*
X2594Y111D03*
X2094Y101D03*
X2394Y111D03*
X3594Y101D03*
X2194Y111D03*
X3394Y101D03*
X1994Y111D03*
X3194Y101D03*
X3494Y111D03*
X2994Y101D03*
X3294Y111D03*
X3394Y2001D03*
X3094Y111D03*
X3194Y2001D03*
X2894Y111D03*
X2994Y2001D03*
X3294Y2011D03*
X2794Y2001D03*
X3094Y2011D03*
X1794Y2011D03*
X2894Y2011D03*
X1994Y2011D03*
X2694Y2011D03*
X2194Y2011D03*
X1894Y2001D03*
X2394Y2011D03*
X2094Y2001D03*
X944Y2011D03*
X2294Y2001D03*
X1144Y2011D03*
X2494Y2001D03*
X1344Y2011D03*
X1044Y2001D03*
X1544Y2011D03*
X1244Y2001D03*
X1444Y2001D03*
G54D12*
X2944Y622D03*
X2944Y366D03*
X2944Y622D03*
X2944Y366D03*
G54D13*
X244Y222D03*
X244Y422D03*
X244Y822D03*
X244Y1022D03*
X244Y622D03*
G54D10*
X2644Y712D03*
X2644Y822D03*
X2644Y712D03*
X2644Y822D03*
X3334Y1122D03*
X3344Y1222D03*
X3334Y1322D03*
X3334Y1122D03*
X3344Y1222D03*
X3334Y1322D03*
X2744Y412D03*
X2744Y522D03*
X2744Y412D03*
X2744Y522D03*
X1244Y1632D03*
X1344Y1622D03*
X1444Y1632D03*
X1244Y1632D03*
X1344Y1622D03*
X1444Y1632D03*
G54D14*
X2144Y1122D03*
X2544Y1122D03*
X2544Y1322D03*
X2144Y1322D03*
G54D15*
X2243Y421D03*
G54D16*
X1644Y2001D03*
X1994Y111D03*
X2894Y111D03*
X2694Y2011D03*
G54D17*
X940Y2011D03*
G54D16*
X2494Y2001D03*
G54D18*
X244Y222D03*
G54D19*
X244Y622D03*
G54D20*
X1202Y1674D02*
X1285Y1674D01*
X1202Y1673D02*
X1285Y1673D01*
X1202Y1672D02*
X1285Y1672D01*
X1202Y1671D02*
X1285Y1671D01*
X1202Y1670D02*
X1285Y1670D01*
X1202Y1669D02*
X1285Y1669D01*
X1202Y1668D02*
X1285Y1668D01*
X1202Y1667D02*
X1285Y1667D01*
X1202Y1666D02*
X1285Y1666D01*
X1202Y1665D02*
X1285Y1665D01*
X1202Y1664D02*
X1285Y1664D01*
X1202Y1663D02*
X1285Y1663D01*
X1202Y1662D02*
X1285Y1662D01*
X1202Y1661D02*
X1285Y1661D01*
X1202Y1660D02*
X1285Y1660D01*
X1202Y1659D02*
X1285Y1659D01*
X1202Y1658D02*
X1285Y1658D01*
X1202Y1657D02*
X1285Y1657D01*
X1202Y1656D02*
X1285Y1656D01*
X1202Y1655D02*
X1285Y1655D01*
X1202Y1654D02*
X1285Y1654D01*
X1202Y1653D02*
X1285Y1653D01*
X1202Y1652D02*
X1285Y1652D01*
X1202Y1651D02*
X1285Y1651D01*
X1202Y1650D02*
X1285Y1650D01*
X1202Y1649D02*
X1285Y1649D01*
X1202Y1648D02*
X1285Y1648D01*
X1202Y1647D02*
X1239Y1647D01*
X1248Y1647D02*
X1285Y1647D01*
X1202Y1646D02*
X1236Y1646D01*
X1251Y1646D02*
X1285Y1646D01*
X1202Y1645D02*
X1235Y1645D01*
X1253Y1645D02*
X1285Y1645D01*
X1202Y1644D02*
X1233Y1644D01*
X1254Y1644D02*
X1285Y1644D01*
X1202Y1643D02*
X1232Y1643D01*
X1255Y1643D02*
X1285Y1643D01*
X1202Y1642D02*
X1232Y1642D01*
X1256Y1642D02*
X1285Y1642D01*
X1202Y1641D02*
X1231Y1641D01*
X1257Y1641D02*
X1285Y1641D01*
X1202Y1640D02*
X1230Y1640D01*
X1257Y1640D02*
X1285Y1640D01*
X1202Y1639D02*
X1230Y1639D01*
X1258Y1639D02*
X1285Y1639D01*
X1202Y1638D02*
X1229Y1638D01*
X1258Y1638D02*
X1285Y1638D01*
X1202Y1637D02*
X1229Y1637D01*
X1258Y1637D02*
X1285Y1637D01*
X1202Y1636D02*
X1229Y1636D01*
X1259Y1636D02*
X1285Y1636D01*
X1202Y1635D02*
X1228Y1635D01*
X1259Y1635D02*
X1285Y1635D01*
X1202Y1634D02*
X1228Y1634D01*
X1259Y1634D02*
X1285Y1634D01*
X1202Y1633D02*
X1228Y1633D01*
X1259Y1633D02*
X1285Y1633D01*
X1202Y1632D02*
X1228Y1632D01*
X1259Y1632D02*
X1285Y1632D01*
X1202Y1631D02*
X1228Y1631D01*
X1259Y1631D02*
X1285Y1631D01*
X1202Y1630D02*
X1228Y1630D01*
X1259Y1630D02*
X1285Y1630D01*
X1202Y1629D02*
X1229Y1629D01*
X1259Y1629D02*
X1285Y1629D01*
X1202Y1628D02*
X1229Y1628D01*
X1258Y1628D02*
X1285Y1628D01*
X1202Y1627D02*
X1229Y1627D01*
X1258Y1627D02*
X1285Y1627D01*
X1202Y1626D02*
X1230Y1626D01*
X1258Y1626D02*
X1285Y1626D01*
X1202Y1625D02*
X1230Y1625D01*
X1257Y1625D02*
X1285Y1625D01*
X1202Y1624D02*
X1231Y1624D01*
X1256Y1624D02*
X1285Y1624D01*
X1202Y1623D02*
X1232Y1623D01*
X1256Y1623D02*
X1285Y1623D01*
X1202Y1622D02*
X1233Y1622D01*
X1255Y1622D02*
X1285Y1622D01*
X1202Y1621D02*
X1234Y1621D01*
X1254Y1621D02*
X1285Y1621D01*
X1202Y1620D02*
X1235Y1620D01*
X1252Y1620D02*
X1285Y1620D01*
X1202Y1619D02*
X1237Y1619D01*
X1251Y1619D02*
X1285Y1619D01*
X1202Y1618D02*
X1240Y1618D01*
X1248Y1618D02*
X1285Y1618D01*
X1202Y1617D02*
X1285Y1617D01*
X1202Y1616D02*
X1285Y1616D01*
X1202Y1615D02*
X1285Y1615D01*
X1202Y1614D02*
X1285Y1614D01*
X1202Y1613D02*
X1285Y1613D01*
X1202Y1612D02*
X1285Y1612D01*
X1202Y1611D02*
X1285Y1611D01*
X1202Y1610D02*
X1285Y1610D01*
X1202Y1609D02*
X1285Y1609D01*
X1202Y1608D02*
X1285Y1608D01*
X1202Y1607D02*
X1285Y1607D01*
X1202Y1606D02*
X1285Y1606D01*
X1202Y1605D02*
X1285Y1605D01*
X1202Y1604D02*
X1285Y1604D01*
X1202Y1603D02*
X1285Y1603D01*
X1202Y1602D02*
X1285Y1602D01*
X1202Y1601D02*
X1285Y1601D01*
X1202Y1600D02*
X1285Y1600D01*
X1202Y1599D02*
X1285Y1599D01*
X1202Y1598D02*
X1285Y1598D01*
X1202Y1597D02*
X1285Y1597D01*
X1202Y1596D02*
X1285Y1596D01*
X1202Y1595D02*
X1285Y1595D01*
X1202Y1594D02*
X1285Y1594D01*
X1202Y1593D02*
X1285Y1593D01*
X1202Y1592D02*
X1285Y1592D01*
X1202Y1591D02*
X1285Y1591D01*
X3292Y1164D02*
X3375Y1164D01*
X3292Y1163D02*
X3375Y1163D01*
X3292Y1162D02*
X3375Y1162D01*
X3292Y1161D02*
X3375Y1161D01*
X3292Y1160D02*
X3375Y1160D01*
X3292Y1159D02*
X3375Y1159D01*
X3292Y1158D02*
X3375Y1158D01*
X3292Y1157D02*
X3375Y1157D01*
X3292Y1156D02*
X3375Y1156D01*
X3292Y1155D02*
X3375Y1155D01*
X3292Y1154D02*
X3375Y1154D01*
X3292Y1153D02*
X3375Y1153D01*
X3292Y1152D02*
X3375Y1152D01*
X3292Y1151D02*
X3375Y1151D01*
X3292Y1150D02*
X3375Y1150D01*
X3292Y1149D02*
X3375Y1149D01*
X3292Y1148D02*
X3375Y1148D01*
X3292Y1147D02*
X3375Y1147D01*
X3292Y1146D02*
X3375Y1146D01*
X3292Y1145D02*
X3375Y1145D01*
X3292Y1144D02*
X3375Y1144D01*
X3292Y1143D02*
X3375Y1143D01*
X3292Y1142D02*
X3375Y1142D01*
X3292Y1141D02*
X3375Y1141D01*
X3292Y1140D02*
X3375Y1140D01*
X3292Y1139D02*
X3375Y1139D01*
X3292Y1138D02*
X3375Y1138D01*
X3292Y1137D02*
X3328Y1137D01*
X3338Y1137D02*
X3375Y1137D01*
X3292Y1136D02*
X3326Y1136D01*
X3340Y1136D02*
X3375Y1136D01*
X3292Y1135D02*
X3324Y1135D01*
X3342Y1135D02*
X3375Y1135D01*
X3292Y1134D02*
X3323Y1134D01*
X3343Y1134D02*
X3375Y1134D01*
X3292Y1133D02*
X3322Y1133D01*
X3344Y1133D02*
X3375Y1133D01*
X3292Y1132D02*
X3321Y1132D01*
X3345Y1132D02*
X3375Y1132D01*
X3292Y1131D02*
X3320Y1131D01*
X3346Y1131D02*
X3375Y1131D01*
X3292Y1130D02*
X3320Y1130D01*
X3347Y1130D02*
X3375Y1130D01*
X3292Y1129D02*
X3319Y1129D01*
X3347Y1129D02*
X3375Y1129D01*
X3292Y1128D02*
X3319Y1128D01*
X3348Y1128D02*
X3375Y1128D01*
X3292Y1127D02*
X3318Y1127D01*
X3348Y1127D02*
X3375Y1127D01*
X3292Y1126D02*
X3318Y1126D01*
X3348Y1126D02*
X3375Y1126D01*
X3292Y1125D02*
X3318Y1125D01*
X3348Y1125D02*
X3375Y1125D01*
X3292Y1124D02*
X3318Y1124D01*
X3349Y1124D02*
X3375Y1124D01*
X3292Y1123D02*
X3318Y1123D01*
X3349Y1123D02*
X3375Y1123D01*
X3292Y1122D02*
X3318Y1122D01*
X3349Y1122D02*
X3375Y1122D01*
X3292Y1121D02*
X3318Y1121D01*
X3349Y1121D02*
X3375Y1121D01*
X3292Y1120D02*
X3318Y1120D01*
X3348Y1120D02*
X3375Y1120D01*
X3292Y1119D02*
X3318Y1119D01*
X3348Y1119D02*
X3375Y1119D01*
X3292Y1118D02*
X3318Y1118D01*
X3348Y1118D02*
X3375Y1118D01*
X3292Y1117D02*
X3319Y1117D01*
X3348Y1117D02*
X3375Y1117D01*
X3292Y1116D02*
X3319Y1116D01*
X3347Y1116D02*
X3375Y1116D01*
X3292Y1115D02*
X3320Y1115D01*
X3347Y1115D02*
X3375Y1115D01*
X3292Y1114D02*
X3320Y1114D01*
X3346Y1114D02*
X3375Y1114D01*
X3292Y1113D02*
X3321Y1113D01*
X3345Y1113D02*
X3375Y1113D01*
X3292Y1112D02*
X3322Y1112D01*
X3344Y1112D02*
X3375Y1112D01*
X3292Y1111D02*
X3323Y1111D01*
X3343Y1111D02*
X3375Y1111D01*
X3292Y1110D02*
X3324Y1110D01*
X3342Y1110D02*
X3375Y1110D01*
X3292Y1109D02*
X3326Y1109D01*
X3340Y1109D02*
X3375Y1109D01*
X3292Y1108D02*
X3329Y1108D01*
X3337Y1108D02*
X3375Y1108D01*
X3292Y1107D02*
X3375Y1107D01*
X3292Y1106D02*
X3375Y1106D01*
X3292Y1105D02*
X3375Y1105D01*
X3292Y1104D02*
X3375Y1104D01*
X3292Y1103D02*
X3375Y1103D01*
X3292Y1102D02*
X3375Y1102D01*
X3292Y1101D02*
X3375Y1101D01*
X3292Y1100D02*
X3375Y1100D01*
X3292Y1099D02*
X3375Y1099D01*
X3292Y1098D02*
X3375Y1098D01*
X3292Y1097D02*
X3375Y1097D01*
X3292Y1096D02*
X3375Y1096D01*
X3292Y1095D02*
X3375Y1095D01*
X3292Y1094D02*
X3375Y1094D01*
X3292Y1093D02*
X3375Y1093D01*
X3292Y1092D02*
X3375Y1092D01*
X3292Y1091D02*
X3375Y1091D01*
X3292Y1090D02*
X3375Y1090D01*
X3292Y1089D02*
X3375Y1089D01*
X3292Y1088D02*
X3375Y1088D01*
X3292Y1087D02*
X3375Y1087D01*
X3292Y1086D02*
X3375Y1086D01*
X3292Y1085D02*
X3375Y1085D01*
X3292Y1084D02*
X3375Y1084D01*
X3292Y1083D02*
X3375Y1083D01*
X3292Y1082D02*
X3375Y1082D01*
X3292Y1081D02*
X3375Y1081D01*
X2602Y754D02*
X2685Y754D01*
X2602Y753D02*
X2685Y753D01*
X2602Y752D02*
X2685Y752D01*
X2602Y751D02*
X2685Y751D01*
X2602Y750D02*
X2685Y750D01*
X2602Y749D02*
X2685Y749D01*
X2602Y748D02*
X2685Y748D01*
X2602Y747D02*
X2685Y747D01*
X2602Y746D02*
X2685Y746D01*
X2602Y745D02*
X2685Y745D01*
X2602Y744D02*
X2685Y744D01*
X2602Y743D02*
X2685Y743D01*
X2602Y742D02*
X2685Y742D01*
X2602Y741D02*
X2685Y741D01*
X2602Y740D02*
X2685Y740D01*
X2602Y739D02*
X2685Y739D01*
X2602Y738D02*
X2685Y738D01*
X2602Y737D02*
X2685Y737D01*
X2602Y736D02*
X2685Y736D01*
X2602Y735D02*
X2685Y735D01*
X2602Y734D02*
X2685Y734D01*
X2602Y733D02*
X2685Y733D01*
X2602Y732D02*
X2685Y732D01*
X2602Y731D02*
X2685Y731D01*
X2602Y730D02*
X2685Y730D01*
X2602Y729D02*
X2685Y729D01*
X2602Y728D02*
X2685Y728D01*
X2602Y727D02*
X2639Y727D01*
X2648Y727D02*
X2685Y727D01*
X2602Y726D02*
X2636Y726D01*
X2651Y726D02*
X2685Y726D01*
X2602Y725D02*
X2634Y725D01*
X2652Y725D02*
X2685Y725D01*
X2602Y724D02*
X2633Y724D01*
X2653Y724D02*
X2685Y724D01*
X2602Y723D02*
X2632Y723D01*
X2655Y723D02*
X2685Y723D01*
X2602Y722D02*
X2631Y722D01*
X2655Y722D02*
X2685Y722D01*
X2602Y721D02*
X2630Y721D01*
X2656Y721D02*
X2685Y721D01*
X2602Y720D02*
X2630Y720D01*
X2657Y720D02*
X2685Y720D01*
X2602Y719D02*
X2629Y719D01*
X2657Y719D02*
X2685Y719D01*
X2602Y718D02*
X2629Y718D01*
X2658Y718D02*
X2685Y718D01*
X2602Y717D02*
X2628Y717D01*
X2658Y717D02*
X2685Y717D01*
X2602Y716D02*
X2628Y716D01*
X2658Y716D02*
X2685Y716D01*
X2602Y715D02*
X2628Y715D01*
X2659Y715D02*
X2685Y715D01*
X2602Y714D02*
X2628Y714D01*
X2659Y714D02*
X2685Y714D01*
X2602Y713D02*
X2628Y713D01*
X2659Y713D02*
X2685Y713D01*
X2602Y712D02*
X2628Y712D01*
X2659Y712D02*
X2685Y712D01*
X2602Y711D02*
X2628Y711D01*
X2659Y711D02*
X2685Y711D01*
X2602Y710D02*
X2628Y710D01*
X2659Y710D02*
X2685Y710D01*
X2602Y709D02*
X2628Y709D01*
X2658Y709D02*
X2685Y709D01*
X2602Y708D02*
X2629Y708D01*
X2658Y708D02*
X2685Y708D01*
X2602Y707D02*
X2629Y707D01*
X2658Y707D02*
X2685Y707D01*
X2602Y706D02*
X2629Y706D01*
X2657Y706D02*
X2685Y706D01*
X2602Y705D02*
X2630Y705D01*
X2657Y705D02*
X2685Y705D01*
X2602Y704D02*
X2631Y704D01*
X2656Y704D02*
X2685Y704D01*
X2602Y703D02*
X2631Y703D01*
X2655Y703D02*
X2685Y703D01*
X2602Y702D02*
X2632Y702D01*
X2654Y702D02*
X2685Y702D01*
X2602Y701D02*
X2633Y701D01*
X2653Y701D02*
X2685Y701D01*
X2602Y700D02*
X2635Y700D01*
X2652Y700D02*
X2685Y700D01*
X2602Y699D02*
X2636Y699D01*
X2650Y699D02*
X2685Y699D01*
X2602Y698D02*
X2639Y698D01*
X2647Y698D02*
X2685Y698D01*
X2602Y697D02*
X2685Y697D01*
X2602Y696D02*
X2685Y696D01*
X2602Y695D02*
X2685Y695D01*
X2602Y694D02*
X2685Y694D01*
X2602Y693D02*
X2685Y693D01*
X2602Y692D02*
X2685Y692D01*
X2602Y691D02*
X2685Y691D01*
X2602Y690D02*
X2685Y690D01*
X2602Y689D02*
X2685Y689D01*
X2602Y688D02*
X2685Y688D01*
X2602Y687D02*
X2685Y687D01*
X2602Y686D02*
X2685Y686D01*
X2602Y685D02*
X2685Y685D01*
X2602Y684D02*
X2685Y684D01*
X2602Y683D02*
X2685Y683D01*
X2602Y682D02*
X2685Y682D01*
X2602Y681D02*
X2685Y681D01*
X2602Y680D02*
X2685Y680D01*
X2602Y679D02*
X2685Y679D01*
X2602Y678D02*
X2685Y678D01*
X2602Y677D02*
X2685Y677D01*
X2602Y676D02*
X2685Y676D01*
X2602Y675D02*
X2685Y675D01*
X2602Y674D02*
X2685Y674D01*
X2602Y673D02*
X2685Y673D01*
X2602Y672D02*
X2685Y672D01*
X2602Y671D02*
X2685Y671D01*
X2702Y454D02*
X2785Y454D01*
X2702Y453D02*
X2785Y453D01*
X2702Y452D02*
X2785Y452D01*
X2702Y451D02*
X2785Y451D01*
X2702Y450D02*
X2785Y450D01*
X2702Y449D02*
X2785Y449D01*
X2702Y448D02*
X2785Y448D01*
X2702Y447D02*
X2785Y447D01*
X2702Y446D02*
X2785Y446D01*
X2702Y445D02*
X2785Y445D01*
X2702Y444D02*
X2785Y444D01*
X2702Y443D02*
X2785Y443D01*
X2702Y442D02*
X2785Y442D01*
X2702Y441D02*
X2785Y441D01*
X2702Y440D02*
X2785Y440D01*
X2702Y439D02*
X2785Y439D01*
X2702Y438D02*
X2785Y438D01*
X2702Y437D02*
X2785Y437D01*
X2702Y436D02*
X2785Y436D01*
X2702Y435D02*
X2785Y435D01*
X2702Y434D02*
X2785Y434D01*
X2702Y433D02*
X2785Y433D01*
X2702Y432D02*
X2785Y432D01*
X2702Y431D02*
X2785Y431D01*
X2702Y430D02*
X2785Y430D01*
X2702Y429D02*
X2785Y429D01*
X2702Y428D02*
X2785Y428D01*
X2702Y427D02*
X2739Y427D01*
X2748Y427D02*
X2785Y427D01*
X2702Y426D02*
X2736Y426D01*
X2751Y426D02*
X2785Y426D01*
X2702Y425D02*
X2734Y425D01*
X2752Y425D02*
X2785Y425D01*
X2702Y424D02*
X2733Y424D01*
X2753Y424D02*
X2785Y424D01*
X2702Y423D02*
X2732Y423D01*
X2755Y423D02*
X2785Y423D01*
X2702Y422D02*
X2731Y422D01*
X2755Y422D02*
X2785Y422D01*
X2702Y421D02*
X2730Y421D01*
X2756Y421D02*
X2785Y421D01*
X2702Y420D02*
X2730Y420D01*
X2757Y420D02*
X2785Y420D01*
X2702Y419D02*
X2729Y419D01*
X2757Y419D02*
X2785Y419D01*
X2702Y418D02*
X2729Y418D01*
X2758Y418D02*
X2785Y418D01*
X2702Y417D02*
X2728Y417D01*
X2758Y417D02*
X2785Y417D01*
X2702Y416D02*
X2728Y416D01*
X2758Y416D02*
X2785Y416D01*
X2702Y415D02*
X2728Y415D01*
X2759Y415D02*
X2785Y415D01*
X2702Y414D02*
X2728Y414D01*
X2759Y414D02*
X2785Y414D01*
X2702Y413D02*
X2728Y413D01*
X2759Y413D02*
X2785Y413D01*
X2702Y412D02*
X2728Y412D01*
X2759Y412D02*
X2785Y412D01*
X2702Y411D02*
X2728Y411D01*
X2759Y411D02*
X2785Y411D01*
X2702Y410D02*
X2728Y410D01*
X2759Y410D02*
X2785Y410D01*
X2702Y409D02*
X2728Y409D01*
X2758Y409D02*
X2785Y409D01*
X2702Y408D02*
X2729Y408D01*
X2758Y408D02*
X2785Y408D01*
X2702Y407D02*
X2729Y407D01*
X2758Y407D02*
X2785Y407D01*
X2702Y406D02*
X2729Y406D01*
X2757Y406D02*
X2785Y406D01*
X2702Y405D02*
X2730Y405D01*
X2757Y405D02*
X2785Y405D01*
X2702Y404D02*
X2730Y404D01*
X2756Y404D02*
X2785Y404D01*
X2702Y403D02*
X2731Y403D01*
X2755Y403D02*
X2785Y403D01*
X2702Y402D02*
X2732Y402D01*
X2754Y402D02*
X2785Y402D01*
X2702Y401D02*
X2733Y401D01*
X2753Y401D02*
X2785Y401D01*
X2702Y400D02*
X2735Y400D01*
X2752Y400D02*
X2785Y400D01*
X2702Y399D02*
X2736Y399D01*
X2750Y399D02*
X2785Y399D01*
X2702Y398D02*
X2739Y398D01*
X2747Y398D02*
X2785Y398D01*
X2702Y397D02*
X2785Y397D01*
X2702Y396D02*
X2785Y396D01*
X2702Y395D02*
X2785Y395D01*
X2702Y394D02*
X2785Y394D01*
X2702Y393D02*
X2785Y393D01*
X2702Y392D02*
X2785Y392D01*
X2702Y391D02*
X2785Y391D01*
X2702Y390D02*
X2785Y390D01*
X2702Y389D02*
X2785Y389D01*
X2702Y388D02*
X2785Y388D01*
X2702Y387D02*
X2785Y387D01*
X2702Y386D02*
X2785Y386D01*
X2702Y385D02*
X2785Y385D01*
X2702Y384D02*
X2785Y384D01*
X2702Y383D02*
X2785Y383D01*
X2702Y382D02*
X2785Y382D01*
X2702Y381D02*
X2785Y381D01*
X2702Y380D02*
X2785Y380D01*
X2702Y379D02*
X2785Y379D01*
X2702Y378D02*
X2785Y378D01*
X2702Y377D02*
X2785Y377D01*
X2702Y376D02*
X2785Y376D01*
X2702Y375D02*
X2785Y375D01*
X2702Y374D02*
X2785Y374D01*
X2702Y373D02*
X2785Y373D01*
X2702Y372D02*
X2785Y372D01*
X2702Y371D02*
X2785Y371D01*
D02*
G04 End of Mask1*
M02*